<svg width="60" height="60" viewBox="0 0 60 60" fill="none" xmlns="http://www.w3.org/2000/svg">
<g clip-path="url(#clip0)">
<path d="M25.5712 50.3448C25.0567 50.2409 24.4886 50.4977 24.2597 51.0456C24.0523 51.5446 24.2089 52.1379 24.6914 52.4688C25.3299 52.8863 26.1466 52.6084 26.4245 51.9424C26.7101 51.2457 26.2867 50.4899 25.5712 50.3448Z" fill="#FB5A16"/>
<path d="M59.0359 33.4218C58.6775 30.9054 56.51 28.9645 53.8966 28.9645H53.481C53.481 28.1561 53.481 22.4798 53.481 21.6609C53.481 19.3725 51.6197 17.5108 49.3314 17.5108H48.5481L50.6978 14.4296C52.0409 12.5047 51.5295 9.85609 49.5662 8.56931C36.4389 -0.0338969 37.3361 0.5113 36.7841 0.292031C35.013 -0.412467 32.9091 0.18171 31.7986 1.81501C31.7812 1.84065 28.6638 6.42606 28.5168 6.64213L24.3874 3.93583C22.7444 2.85917 20.5101 3.30503 19.406 4.92918L10.8517 17.5108H5.88226C3.15536 17.5108 0.9375 19.7291 0.9375 22.4556C0.9375 22.4913 0.939331 22.5265 0.940247 22.5627C0.939331 22.5805 0.9375 22.5984 0.9375 22.6163V54.9554C0.9375 57.7373 3.20068 60 5.98206 60H48.4369C51.2183 60 53.481 57.7373 53.481 54.9554V52.1493H53.7177C56.6794 52.1493 59.0886 49.7397 59.0886 46.7779C59.0886 32.5685 59.1147 33.6744 59.0359 33.4218ZM53.8966 31.3083C55.4672 31.3083 56.7448 32.5859 56.7448 34.1565C56.738 34.2151 56.8126 35.0679 56.3255 35.8694C55.3468 37.478 53.562 37.2441 53.4814 37.2633V31.3083H53.8966ZM30.4839 7.91792C34.0182 9.99387 38.5748 9.11909 41.0614 5.79847L43.6075 7.46702C41.6634 10.8252 42.4974 15.1689 45.6834 17.5204L43.7288 20.3219H22.0505C22.2775 19.9873 29.3678 9.55946 30.4839 7.91792ZM33.7372 3.13291C34.2906 2.31855 35.4112 2.0947 36.2347 2.63487L39.0962 4.51032C37.3448 6.72682 34.2567 7.32832 31.805 5.97471L33.7372 3.13291ZM48.2812 10.5299C49.1386 11.0916 49.362 12.2479 48.7756 13.0884L47.0256 15.5964C44.8915 13.9792 44.3106 11.0582 45.5717 8.75379L48.2812 10.5299ZM21.3446 6.24662C21.7342 5.6735 22.5229 5.51649 23.1024 5.89643L27.1985 8.58076L19.216 20.3219H11.7751L21.3446 6.24662ZM5.88226 19.855H9.25781C8.72681 20.7023 8.41919 20.9102 8.39081 21.4293C8.35373 22.1008 8.88885 22.6661 9.56085 22.6661H44.3404C44.7235 22.6661 45.0824 22.4785 45.3012 22.1644L46.9125 19.855H49.3314C50.327 19.855 51.1372 20.6653 51.1372 21.6609V25.0561H5.88226C2.37625 25.0561 2.50992 19.855 5.88226 19.855ZM51.1372 54.9554C51.1372 56.4445 49.9255 57.6558 48.4369 57.6558H5.98206C4.49295 57.6558 3.28171 56.4445 3.28171 54.9554V52.6661H20.6543C21.3011 52.6661 21.8262 52.1411 21.8262 51.4943C21.8262 50.847 21.3011 50.3219 20.6543 50.3219H3.28171V26.6661C3.77747 26.9719 4.32907 27.1852 4.88205 27.2983C6.10199 27.5496 5.54489 27.3175 51.1372 27.3999V37.2633H46.848C42.7441 37.2633 39.4052 40.6022 39.4052 44.7061C39.4052 48.8104 42.7441 52.1493 46.848 52.1493H51.1372V54.9554ZM56.7448 46.7779C56.7448 48.4469 55.3867 49.8051 53.7177 49.8051H46.848C44.0369 49.8051 41.7494 47.5177 41.7494 44.7061C41.7494 41.895 44.0369 39.6075 46.848 39.6075H53.8522C54.9115 39.6075 55.9154 39.2857 56.7448 38.7341V46.7779Z" fill="#FB5A16"/>
<path d="M47.2599 40.584C44.983 40.584 43.1309 42.4361 43.1309 44.713C43.1309 46.9899 44.9834 48.842 47.2599 48.842C49.5368 48.842 51.3894 46.9899 51.3894 44.713C51.3894 42.4361 49.5368 40.584 47.2599 40.584ZM47.2599 46.4983C46.2757 46.4983 45.4751 45.6972 45.4751 44.713C45.4751 43.7288 46.2757 42.9277 47.2599 42.9277C48.2445 42.9277 49.0452 43.7288 49.0452 44.713C49.0452 45.6972 48.2445 46.4983 47.2599 46.4983Z" fill="#FB5A16"/>
</g>
<defs>
<clipPath id="clip0">
<rect width="60" height="60" fill="white"/>
</clipPath>
</defs>
</svg>