<svg width="60" height="60" viewBox="0 0 60 60" fill="none" xmlns="http://www.w3.org/2000/svg">
<path fill-rule="evenodd" clip-rule="evenodd" d="M58.8281 19H52.463H50.0225H46.8572H44.4376H15.5624H13.1427H9.97746H7.53703H1.17188C0.524766 19 0 19.5248 0 20.1719V24.8594C0 25.5065 0.524766 26.0312 1.17188 26.0312L2 26L4.5 37.5C4.65574 37.9847 5 39 6 39C6 39 51.5 39 53 39C54.5 39 54.8441 37.9846 55 37.5C55.1559 37.0154 58 26.0312 58 26.0312H58.8281C59.4752 26.0312 60 25.5065 60 24.8594V20.1719C60 19.5248 59.4752 19 58.8281 19ZM53.201 36.2631C53.0823 36.6982 52.6872 37 52.2362 37H7.14499C6.67273 37 6.26485 36.6696 6.16679 36.2076L4 26L9.57727 26.0312H12.0177H47.9823H50.4227L56 26L53.201 36.2631ZM58 23C58 23.5523 57.5523 24 57 24H3C2.44771 24 2 23.5523 2 23V22C2 21.4477 2.44772 21 3 21H57C57.5523 21 58 21.4477 58 22V23Z" fill="#FB5A16"/>
<path d="M15.8333 12.7273L29.0556 12.7273C30.2867 12.7273 31.3366 11.9673 31.7262 10.9091H33.8575C34.2389 13.0653 36.0087 15 39.4444 15C43.0112 15 47 12.8619 47 10C47 7.13814 43.0112 5 39.4444 5C36.0087 5 34.2389 6.93466 33.8575 9.09091H31.7262C31.3366 8.03267 30.2867 7.27273 29.0556 7.27273L15.8333 7.27273C14.2709 7.27273 13 8.49609 13 10C13 11.5039 14.2709 12.7273 15.8333 12.7273ZM39.4444 6.81818C42.2512 6.81818 45.1111 8.42401 45.1111 10C45.1111 11.576 42.2512 13.1818 39.4444 13.1818C37.0789 13.1818 35.6667 11.9922 35.6667 10C35.6667 8.00781 37.0789 6.81818 39.4444 6.81818ZM15.8333 9.09091L29.0556 9.09091C29.5761 9.09091 30 9.49858 30 10C30 10.5014 29.5761 10.9091 29.0556 10.9091L15.8333 10.9091C15.3124 10.9091 14.8889 10.5014 14.8889 10C14.8889 9.49858 15.3124 9.09091 15.8333 9.09091Z" fill="#FB5A16"/>
<path d="M48 48.9998C48 47.3456 46.7291 45.9999 45.1667 45.9999L31.9444 45.9999C30.7133 45.9999 29.6634 46.8362 29.2738 47.9998H27.2222V46.9999C27.2222 45.3457 25.9513 44 24.3889 44H14.9444C14.4228 44 14 44.4476 14 45C14 45.5523 14.4228 45.9999 14.9444 45.9999H21.5556V47.9998H14.9444C14.4228 47.9998 14 48.4479 14 48.9998C14 49.5521 14.4228 49.9998 14.9444 49.9998H21.5556V52.0001H14.9444C14.4228 52.0001 14 52.4477 14 53C14 53.552 14.4228 54 14.9444 54H24.3889C25.9513 54 27.2222 52.654 27.2222 51.0001V49.9998H29.2738C29.6638 51.1638 30.7133 51.9997 31.9444 51.9997L45.1667 51.9997C46.7291 51.9997 48 50.654 48 48.9998ZM25.3333 51.0001C25.3333 51.5513 24.9098 52.0001 24.3889 52.0001H23.4444V45.9999H24.3889C24.9098 45.9999 25.3333 46.4483 25.3333 46.9999V51.0001ZM31.0004 48.9998C31.0004 48.4487 31.4239 47.9998 31.9444 47.9998L45.1667 47.9998C45.6876 47.9998 46.1111 48.4487 46.1111 48.9998C46.1111 49.5513 45.6876 49.9998 45.1667 49.9998L31.9444 49.9998C31.4239 49.9998 31.0004 49.5513 31.0004 48.9998Z" fill="#FB5A16"/>
</svg>