<svg width="60" height="56" viewBox="0 0 60 56" fill="none" xmlns="http://www.w3.org/2000/svg">
<path d="M38.4941 1.83519H37.4113C37.0234 0.737997 35.9875 0.00327066 34.8237 0H5.46062C3.9403 0 2.70783 1.23247 2.70783 2.75279V7.46924C1.10941 7.90363 0 9.35477 0 11.0112C0 12.6676 1.10941 14.1187 2.70783 14.5531V18.4804C1.10941 18.9148 0 20.3659 0 22.0223C0 23.6787 1.10941 25.1299 2.70783 25.5643V29.4916C1.10941 29.926 0 31.3771 0 33.0335C0 34.6899 1.10941 36.141 2.70783 36.5754V40.5027C1.10941 40.9371 0 42.3883 0 44.0447C0 45.701 1.10941 47.1522 2.70783 47.5866V52.303C2.70783 53.8234 3.9403 55.0558 5.46062 55.0558H34.8237C35.9875 55.0525 37.0234 54.3178 37.4113 53.2206H38.4941C40.0144 53.2206 41.2469 51.9882 41.2469 50.4678V4.58799C41.2469 3.06766 40.0144 1.83519 38.4941 1.83519ZM32.0709 1.83519V8.25837C32.0709 8.76515 31.6601 9.17597 31.1533 9.17597C30.6466 9.17597 30.2357 8.76515 30.2357 8.25837V1.83519H32.0709ZM34.8237 53.2206H5.46062C4.95385 53.2206 4.54302 52.8098 4.54302 52.303V46.7974C4.54302 46.2907 4.1322 45.8798 3.62543 45.8798C2.61188 45.8798 1.79023 45.0582 1.79023 44.0447C1.79023 43.0311 2.61188 42.2095 3.62543 42.2095C4.63898 42.2095 5.46062 43.0311 5.46062 44.0447C5.46062 44.5514 5.87144 44.9623 6.37822 44.9623C6.88499 44.9623 7.29581 44.5514 7.29581 44.0447C7.29039 42.3754 6.15928 40.92 4.54302 40.5027V35.7863C4.54302 35.2795 4.1322 34.8687 3.62543 34.8687C2.61188 34.8687 1.79023 34.047 1.79023 33.0335C1.79023 32.0199 2.61188 31.1983 3.62543 31.1983C4.63898 31.1983 5.46062 32.0199 5.46062 33.0335C5.46062 33.5403 5.87144 33.9511 6.37822 33.9511C6.88499 33.9511 7.29581 33.5403 7.29581 33.0335C7.29039 31.3642 6.15928 29.9089 4.54302 29.4916V24.7751C4.54302 24.2683 4.1322 23.8575 3.62543 23.8575C2.61188 23.8575 1.79023 23.0359 1.79023 22.0223C1.79023 21.0088 2.61188 20.1871 3.62543 20.1871C4.63898 20.1871 5.46062 21.0088 5.46062 22.0223C5.46062 22.5291 5.87144 22.9399 6.37822 22.9399C6.88499 22.9399 7.29581 22.5291 7.29581 22.0223C7.29039 20.3531 6.15928 18.8977 4.54302 18.4804V13.764C4.54302 13.2572 4.1322 12.8464 3.62543 12.8464C2.61188 12.8464 1.79023 12.0247 1.79023 11.0112C1.79023 9.99761 2.61188 9.17597 3.62543 9.17597C4.63898 9.17597 5.46062 9.99761 5.46062 11.0112C5.46062 11.5179 5.87144 11.9288 6.37822 11.9288C6.88499 11.9288 7.29581 11.5179 7.29581 11.0112C7.29039 9.34191 6.15928 7.88655 4.54302 7.46924V2.75279C4.54302 2.24602 4.95385 1.83519 5.46062 1.83519H28.4005V8.25837C28.4005 9.7787 29.633 11.0112 31.1533 11.0112C32.6737 11.0112 33.9061 9.7787 33.9061 8.25837V1.83519H34.8237C35.3305 1.83519 35.7413 2.24602 35.7413 2.75279V52.303C35.7413 52.8098 35.3305 53.2206 34.8237 53.2206ZM39.4117 50.4678C39.4117 50.9746 39.0009 51.3854 38.4941 51.3854H37.5765V3.67039H38.4941C39.0009 3.67039 39.4117 4.08121 39.4117 4.58799V50.4678Z" fill="#FB5A16"/>
<path d="M28.1827 19.4506C27.6405 19.312 27.1911 18.9336 26.9623 18.4229C25.9234 16.1217 23.6328 14.6426 21.108 14.6426C18.5832 14.6426 16.2926 16.1217 15.2537 18.4229C15.0249 18.9336 14.5756 19.312 14.0333 19.4506C11.4824 20.1388 8.99573 22.5337 9.17925 25.6994C9.28914 28.296 10.8812 30.5984 13.2717 31.6179C13.5863 31.7655 13.7816 32.0874 13.7672 32.4346V39.4083C13.7672 40.9287 14.9997 42.1611 16.52 42.1611H25.696C27.2163 42.1611 28.4488 40.9287 28.4488 39.4083V32.4346C28.4344 32.0874 28.6297 31.7655 28.9443 31.6179C31.3348 30.5984 32.9269 28.296 33.0368 25.6994C33.2203 22.5337 30.7336 20.1388 28.1827 19.4506ZM26.6136 39.4083C26.6136 39.9151 26.2028 40.3259 25.696 40.3259H16.52C16.0132 40.3259 15.6024 39.9151 15.6024 39.4083V38.4907H26.6136V39.4083ZM28.2561 29.9112C27.2564 30.3519 26.6118 31.3421 26.6136 32.4346V36.6556H24.7784V33.9028C24.7784 33.396 24.3676 32.9852 23.8608 32.9852C23.354 32.9852 22.9432 33.396 22.9432 33.9028V36.6556H19.2728V33.9028C19.2728 33.396 18.862 32.9852 18.3552 32.9852C17.8484 32.9852 17.4376 33.396 17.4376 33.9028V36.6556H15.6024V32.4346C15.6042 31.3421 14.9597 30.3519 13.9599 29.9112C12.2256 29.1606 11.0788 27.478 11.0144 25.5893C10.886 23.4146 12.7212 21.7171 14.5197 21.2216C15.5797 20.9433 16.4628 20.2112 16.9329 19.2212C17.6783 17.5853 19.3103 16.5354 21.108 16.5354C22.9057 16.5354 24.5377 17.5853 25.2831 19.2212C25.7425 20.2288 26.6272 20.979 27.6964 21.2675C29.5315 21.763 31.3667 23.4605 31.2016 25.6352C31.1199 27.5071 29.9759 29.1678 28.2561 29.9112Z" fill="#FB5A16"/>
<path d="M52.2569 14.3157C52.4857 14.3157 52.7042 14.2253 52.8651 14.0636L57.6016 9.32364L57.9052 9.02514C58.7018 8.23113 59.1406 7.17388 59.1406 6.04696C59.1406 4.92004 58.7018 3.86279 57.9078 3.07136C57.1155 2.27478 56.0583 1.83519 54.9296 1.83519C53.9438 1.83519 53.0104 2.17069 52.2577 2.78576C51.5059 2.16983 50.5716 1.83519 49.5866 1.83519C48.458 1.83519 47.4008 2.27478 46.6119 3.06878C45.8153 3.86279 45.3757 4.92004 45.3757 6.04696C45.3757 7.17388 45.8153 8.23113 46.611 9.02428L51.6495 14.0627C51.8095 14.2245 52.0289 14.3157 52.2569 14.3157ZM47.0954 6.04782C47.0954 5.38199 47.3552 4.75659 47.8283 4.28517C48.2946 3.81548 48.9191 3.55654 49.5858 3.55654C50.2533 3.55654 50.8822 3.81634 51.3553 4.28861L51.6512 4.58282C51.9876 4.91746 52.5287 4.91746 52.8642 4.58282L53.161 4.28775C54.1073 3.34578 55.752 3.34234 56.6914 4.28775C57.1611 4.75659 57.4209 5.38113 57.4209 6.04782C57.4209 6.71451 57.1611 7.33905 56.6957 7.80358L52.2586 12.239L47.8257 7.80703C47.3552 7.33905 47.0954 6.71365 47.0954 6.04782Z" fill="#FB5A16"/>
<path d="M54.4083 19.2695C52.8418 19.2695 52.4418 20.6563 52.2921 21.1819C52.2913 21.1827 52.2904 21.1836 52.2904 21.1844L51.6082 23.5708H50.5372C50.5372 23.0951 50.1527 22.7105 49.677 22.7105H46.236C45.7603 22.7105 45.3757 23.0951 45.3757 23.5708V32.1732C45.3757 32.649 45.7603 33.0335 46.236 33.0335H49.677C50.1527 33.0335 50.5372 32.649 50.5372 32.1732H51.0413L51.6487 32.7806C51.7278 32.8606 51.8233 32.9234 51.9291 32.9672C52.034 33.0111 52.1459 33.0335 52.2577 33.0335H57.4192C58.842 33.0335 59.9999 31.8756 59.9999 30.4527V26.1515C59.9999 24.7287 58.842 23.5708 57.4192 23.5708H56.5589V21.4201C56.5589 20.2339 55.5946 19.2695 54.4083 19.2695ZM47.0962 31.313V24.431H48.8167V31.313H47.0962ZM57.4192 31.313H52.6139L52.0065 30.7057C51.9274 30.6257 51.8319 30.5629 51.7261 30.519C51.6211 30.4751 51.5093 30.4527 51.3975 30.4527H50.5372V25.2913H52.2577H52.2586C52.3652 25.2913 52.4667 25.2672 52.5631 25.2302C52.5958 25.2173 52.6233 25.1984 52.6543 25.182C52.7136 25.1502 52.7696 25.1149 52.8203 25.0693C52.8496 25.0444 52.8745 25.0168 52.9003 24.9876C52.9425 24.9386 52.9769 24.8861 53.0078 24.8276C53.0259 24.7923 53.0448 24.7588 53.0586 24.7201C53.0663 24.702 53.0784 24.6865 53.0844 24.6659L53.9447 21.655C53.9447 21.6541 53.9447 21.6533 53.9447 21.6524C54.1356 20.9892 54.2492 20.9892 54.4075 20.9892C54.644 20.9892 54.8376 21.1827 54.8376 21.4193V24.4302C54.8376 24.9059 55.2221 25.2904 55.6978 25.2904H57.4183C57.8932 25.2904 58.2786 25.6758 58.2786 26.1506V30.4519C58.2794 30.9276 57.894 31.313 57.4192 31.313Z" fill="#FB5A16"/>
<path fill-rule="evenodd" clip-rule="evenodd" d="M52.3152 41.2919C55.6349 41.2919 58.3369 43.9939 58.3369 47.3136C58.3369 50.6333 55.6349 53.3353 52.3152 53.3353C48.9955 53.3353 46.2935 50.6333 46.2935 47.3136C46.2935 43.9939 48.9955 41.2919 52.3152 41.2919ZM52.3152 43.0124C49.9435 43.0124 48.014 44.9419 48.014 47.3136C48.014 49.6853 49.9435 51.6148 52.3152 51.6148C54.6869 51.6148 56.6164 49.6853 56.6164 47.3136C56.6164 44.9419 54.6869 43.0124 52.3152 43.0124ZM53.1754 48.1738V49.0341C53.1754 49.5098 52.7909 49.8943 52.3152 49.8943C51.8395 49.8943 51.455 49.5098 51.455 49.0341V48.1738H50.5947C50.119 48.1738 49.7345 47.7893 49.7345 47.3136C49.7345 46.8379 50.119 46.4533 50.5947 46.4533H51.455V45.5931C51.455 45.1174 51.8395 44.7329 52.3152 44.7329C52.7909 44.7329 53.1754 45.1174 53.1754 45.5931V46.4533H54.0357C54.5114 46.4533 54.8959 46.8379 54.8959 47.3136C54.8959 47.7893 54.5114 48.1738 54.0357 48.1738H53.1754Z" fill="#FB5A16"/>
</svg>