<svg width="60" height="60" viewBox="0 0 60 60" fill="none" xmlns="http://www.w3.org/2000/svg">
<g clip-path="url(#clip0)">
<path d="M25.3125 10.3125C25.3125 8.24437 23.6306 6.5625 21.5625 6.5625C19.4944 6.5625 17.8125 8.24437 17.8125 10.3125C17.8125 12.3806 19.4944 14.0625 21.5625 14.0625C23.6306 14.0625 25.3125 12.3806 25.3125 10.3125ZM19.6875 10.3125C19.6875 9.27844 20.5284 8.4375 21.5625 8.4375C22.5966 8.4375 23.4375 9.27844 23.4375 10.3125C23.4375 11.3466 22.5966 12.1875 21.5625 12.1875C20.5284 12.1875 19.6875 11.3466 19.6875 10.3125Z" fill="#FB5A16"/>
<path d="M21.5907 49.6866C22.1082 49.6866 22.5282 49.2676 22.5282 48.7491C22.5282 48.2307 22.1082 47.8116 21.5907 47.8116H21.5813C21.0638 47.8116 20.6494 48.2307 20.6494 48.7491C20.6494 49.2676 21.0732 49.6866 21.5907 49.6866Z" fill="#FB5A16"/>
<path d="M44.0614 41.2518C43.543 41.2518 43.1239 41.6709 43.1239 42.1893V43.1259H42.6533V42.1893C42.6533 41.6709 42.2343 41.2518 41.7158 41.2518C41.1974 41.2518 40.7783 41.6709 40.7783 42.1893V43.1259H40.3105V42.1893C40.3105 41.6709 39.8914 41.2518 39.373 41.2518C38.8546 41.2518 38.4355 41.6709 38.4355 42.1893V45.9384C38.4355 45.9403 38.4346 45.9412 38.4346 45.9431C38.4346 46.9762 39.2746 47.8153 40.3068 47.8153H40.7793V54.3796C40.7793 54.8981 41.1983 55.3171 41.7168 55.3171C42.2352 55.3171 42.6543 54.8981 42.6543 54.3796V47.8153H43.1127C43.1164 47.8153 43.1193 47.8171 43.1221 47.8171C44.1561 47.8171 44.998 46.9762 44.9989 45.9421V45.9412V42.1893C44.9989 41.6709 44.5799 41.2518 44.0614 41.2518ZM43.1239 45.0009V45.9328C43.1239 45.9356 43.1221 45.9375 43.1221 45.9403H40.3105V45.0009H43.1239Z" fill="#FB5A16"/>
<path d="M46.8787 41.2501C46.8768 41.2501 46.8749 41.2491 46.8731 41.2491C46.8721 41.2491 46.8721 41.2491 46.8712 41.2491C46.8702 41.2491 46.8684 41.2491 46.8674 41.2491C46.349 41.2491 45.9299 41.6682 45.9299 42.1866C45.9299 42.197 45.9356 42.2045 45.9356 42.2138V54.3798C45.9356 54.8982 46.3546 55.3173 46.8731 55.3173C47.3915 55.3173 47.8106 54.8982 47.8106 54.3798V49.6866H49.6856C50.204 49.6866 50.6231 49.2676 50.6231 48.7491V45.0048C50.6231 42.9376 48.944 41.2566 46.8787 41.2501ZM47.8106 43.3866C48.3684 43.7138 48.7481 44.312 48.7481 45.0048V47.8116H47.8106V43.3866Z" fill="#FB5A16"/>
<path d="M59.0625 36.5625H55.3162V33.2831C55.3162 29.9222 52.5825 27.1884 49.2225 27.1884C48.5672 27.1884 47.9372 27.2953 47.3456 27.4875C46.7541 27.2944 46.1241 27.1875 45.4688 27.1875C42.1087 27.1875 39.375 29.9222 39.375 33.2822V36.5625H33.7481C33.2297 36.5625 32.8106 36.9816 32.8106 37.5V42.1884H29.0625V38.2837C33.5381 35.6859 36.5625 30.8512 36.5625 25.3134V21.5625H37.5C37.6191 21.5625 37.7362 21.5372 37.8478 21.4922C37.8956 21.4734 37.9322 21.4406 37.9753 21.4144C38.0278 21.3834 38.0831 21.3619 38.13 21.3197C38.1366 21.3141 38.1384 21.3066 38.1441 21.3C38.1947 21.2522 38.2275 21.1922 38.2669 21.135C38.2959 21.09 38.3344 21.0506 38.3559 21.0028C38.3756 20.9587 38.3775 20.9091 38.3906 20.8622C38.4094 20.7909 38.4319 20.7206 38.4338 20.6466C38.4328 20.6391 38.4375 20.6325 38.4375 20.625C38.4375 20.5791 38.4178 20.5397 38.4122 20.4956C38.4019 20.4253 38.3953 20.3569 38.37 20.2894C38.3456 20.2247 38.3044 20.1712 38.2659 20.1141C38.2406 20.0747 38.2275 20.0316 38.1956 19.9959C38.1441 19.9388 37.6753 19.4419 36.5634 18.8138V16.875C36.5634 8.92031 30.3337 2.41031 22.5009 1.92281V1.875C22.5009 1.3575 22.0819 0.9375 21.5634 0.9375C21.045 0.9375 20.6259 1.3575 20.6259 1.875V1.92281C12.7922 2.41031 6.5625 8.92031 6.5625 16.875V18.8128C5.44969 19.4409 4.98094 19.9378 4.93031 19.995C4.8975 20.0316 4.88438 20.0756 4.85906 20.115C4.82156 20.1712 4.78031 20.2238 4.75594 20.2884C4.73344 20.3484 4.72875 20.4113 4.71844 20.475C4.70906 20.5256 4.6875 20.5716 4.6875 20.625C4.6875 20.6334 4.69219 20.6409 4.69219 20.6494C4.69406 20.6925 4.71094 20.7319 4.7175 20.775C4.77375 21.1087 4.99125 21.3825 5.30062 21.4978C5.31469 21.5025 5.32875 21.5016 5.34281 21.5063C5.43375 21.5344 5.52563 21.5625 5.625 21.5625H6.5625V25.3134C6.5625 30.8512 9.58687 35.685 14.0625 38.2837V42.1894L8.43937 42.1884C3.78562 42.1884 0 45.9741 0 50.6278L0.0009375 57.1875C0.0009375 58.2216 0.841875 59.0625 1.87594 59.0625H33.7481H55.3106H59.0625C59.5809 59.0625 60 58.6434 60 58.125V37.5C60 36.9816 59.5809 36.5625 59.0625 36.5625ZM53.4412 33.2831V36.5625H51.5625V33.2831C51.5625 31.6791 50.9353 30.2231 49.9191 29.1338C51.9131 29.4684 53.4412 31.1944 53.4412 33.2831ZM45.0037 36.5625V33.2831C45.0037 31.6331 45.9628 30.2166 47.3456 29.5238C48.7284 30.2175 49.6875 31.6331 49.6875 33.2831V36.5625H45.0037ZM41.25 33.2831C41.25 31.1944 42.7781 29.4684 44.7722 29.1338C43.7559 30.2231 43.1287 31.6791 43.1287 33.2831V36.5625H41.25V33.2831ZM8.4375 16.875C8.4375 9.6375 14.325 3.75 21.5625 3.75C28.8 3.75 34.6875 9.6375 34.6875 16.875V17.9297C32.1544 16.9275 28.0209 15.9375 21.5625 15.9375C15.1041 15.9375 10.9706 16.9275 8.4375 17.9297V16.875ZM34.0172 19.6875H9.10969C11.3934 18.7772 15.2803 17.8125 21.5625 17.8125C27.8484 17.8125 31.7362 18.7791 34.0172 19.6875ZM8.4375 25.3134V21.5625H34.6875V25.3134C34.6875 32.5509 28.8 38.4384 21.5625 38.4384C14.325 38.4384 8.4375 32.5509 8.4375 25.3134ZM21.5625 40.3134C23.5519 40.3134 25.4494 39.915 27.1875 39.2091V42.5475L24.3037 43.9875L21.8587 43.1747C21.8213 43.1625 21.7837 43.1681 21.7463 43.1606C21.6862 43.1484 21.6262 43.14 21.5634 43.1391C21.5006 43.14 21.4406 43.1494 21.3806 43.1606C21.3431 43.1681 21.3056 43.1625 21.2681 43.1747L18.8231 43.9875L15.9375 42.5475V39.2091C17.6756 39.915 19.5731 40.3134 21.5625 40.3134ZM8.43937 44.0634L14.7797 44.0644L18.3319 45.8381C18.3469 45.8456 18.3628 45.8428 18.3787 45.8494C18.495 45.9009 18.6178 45.9366 18.7481 45.9375H18.75H18.7509C18.7528 45.9375 18.7547 45.9366 18.7566 45.9366C18.8484 45.9356 18.9375 45.9197 19.0247 45.8934C19.0322 45.8906 19.0397 45.8925 19.0462 45.8897L21.5625 45.0525L24.0797 45.8897C24.0872 45.8925 24.0947 45.8906 24.1012 45.8934C24.1884 45.9197 24.2775 45.9356 24.3694 45.9366C24.3713 45.9366 24.3731 45.9375 24.375 45.9375H24.3759H24.3778C24.5081 45.9366 24.6309 45.9009 24.7472 45.8494C24.7631 45.8428 24.7791 45.8456 24.7941 45.8381L28.3481 44.0634H32.8116V57.1875H1.87594L1.875 50.6278C1.875 47.0081 4.81969 44.0634 8.43937 44.0634ZM34.6856 38.4375H54.3731V57.1875H34.6856V38.4375ZM58.125 57.1875H56.2481V38.4375H58.125V57.1875Z" fill="#FB5A16"/>
</g>
<defs>
<clipPath id="clip0">
<rect width="60" height="60" fill="white"/>
</clipPath>
</defs>
</svg>