<svg width="60" height="60" viewBox="0 0 60 60" fill="none" xmlns="http://www.w3.org/2000/svg">
<path fill-rule="evenodd" clip-rule="evenodd" d="M48.5546 5.15625H54.1406C57.3715 5.15625 60 7.78477 60 11.0156V55.5462C60 58.0021 58.0019 60 55.5462 60H4.45312C1.9977 60 0 58.0023 0 55.5469V52.5146C0 51.8674 0.524766 51.3428 1.17188 51.3428H4.34168H16.8643H28.5732C29.2204 51.3428 29.7451 51.8674 29.7451 52.5146C29.7451 53.1619 29.2204 53.6865 28.5732 53.6865H2.34375V55.5469C2.34375 56.71 3.29004 57.6562 4.45312 57.6562H51.625C51.2855 57.0278 51.0923 56.3092 51.0923 55.5462V53.6865H38.6329C37.9857 53.6865 37.461 53.1619 37.461 52.5146C37.461 51.8674 37.9857 51.3428 38.6329 51.3428H52.2642C52.9113 51.3428 53.4361 51.8674 53.4361 52.5146V55.5462C53.4361 56.7096 54.3826 57.6562 55.5462 57.6562C56.7097 57.6562 57.6562 56.7096 57.6562 55.5462V11.0156C57.6562 9.07711 56.0791 7.5 54.1406 7.5H48.5546V8.96484C48.5546 10.9034 46.9775 12.4805 45.039 12.4805C43.1005 12.4805 41.5234 10.9034 41.5234 8.96484V7.5H21.8359V8.96484C21.8359 10.9034 20.2588 12.4805 18.3203 12.4805C16.3818 12.4805 14.8046 10.9034 14.8046 8.96484V7.45664C14.705 7.48406 14.6006 7.5 14.4922 7.5H9.82301C7.88449 7.5 6.30738 9.07711 6.30738 11.0156V14.8828H48.5546C49.2018 14.8828 49.7265 15.4075 49.7265 16.0547C49.7265 16.7019 49.2018 17.2266 48.5546 17.2266H6.30738V30.9765C6.30738 31.6238 5.78262 32.1484 5.13551 32.1484C4.4884 32.1484 3.96363 31.6238 3.96363 30.9765V11.0156C3.96363 7.78477 6.59215 5.15625 9.82301 5.15625H14.4922C14.6006 5.15625 14.705 5.17207 14.8046 5.19961V3.51562C14.8046 1.57711 16.3818 0 18.3203 0C20.2588 0 21.8359 1.57711 21.8359 3.51562V5.15625H41.5234V3.51562C41.5234 1.57711 43.1005 0 45.039 0C46.9775 0 48.5546 1.57711 48.5546 3.51562V5.15625ZM18.3203 10.1367C18.9664 10.1367 19.4921 9.61102 19.4921 8.96484V3.51562C19.4921 2.86945 18.9664 2.34375 18.3203 2.34375C17.6741 2.34375 17.1484 2.86945 17.1484 3.51562V8.96484C17.1484 9.61102 17.6741 10.1367 18.3203 10.1367ZM45.039 10.1367C45.6852 10.1367 46.2109 9.61102 46.2109 8.96484V3.51562C46.2109 2.86945 45.6852 2.34375 45.039 2.34375C44.3929 2.34375 43.8671 2.86945 43.8671 3.51562V8.96484C43.8671 9.61102 44.3929 10.1367 45.039 10.1367Z" fill="#FB5A16"/>
<path d="M54.8799 15.2262C54.6621 15.0082 54.3597 14.8828 54.0515 14.8828C53.7432 14.8828 53.441 15.0082 53.223 15.2262C53.005 15.4441 52.8796 15.7465 52.8796 16.0547C52.8796 16.3629 53.0049 16.6652 53.223 16.8832C53.4411 17.1012 53.7432 17.2266 54.0515 17.2266C54.3597 17.2266 54.6621 17.1012 54.8799 16.8832C55.0979 16.6652 55.2234 16.3629 55.2234 16.0547C55.2234 15.7465 55.098 15.4441 54.8799 15.2262Z" fill="#FB5A16"/>
<path d="M34.9978 51.6857C34.78 51.4677 34.4776 51.3435 34.1694 51.3435C33.8612 51.3435 33.5589 51.4677 33.3409 51.6857C33.123 51.9048 32.9976 52.206 32.9976 52.5142C32.9976 52.8236 33.1228 53.1248 33.3409 53.3439C33.5589 53.5619 33.8612 53.6861 34.1694 53.6861C34.4776 53.6861 34.78 53.5619 34.9978 53.3439C35.2158 53.1248 35.3413 52.8224 35.3413 52.5142C35.3413 52.206 35.2159 51.9048 34.9978 51.6857Z" fill="#FB5A16"/>
<path d="M26.5129 35.625C24.0575 35.625 22.0598 37.6227 22.0598 40.0781C22.0598 42.5336 24.0575 44.5312 26.5129 44.5312C28.9684 44.5312 30.9661 42.5336 30.9661 40.0781C30.9661 37.6227 28.9684 35.625 26.5129 35.625ZM26.5129 42.1875C25.3499 42.1875 24.4036 41.2412 24.4036 40.0781C24.4036 38.915 25.3499 37.9688 26.5129 37.9688C27.676 37.9688 28.6223 38.915 28.6223 40.0781C28.6223 41.2412 27.676 42.1875 26.5129 42.1875Z" fill="#FB5A16"/>
<path d="M37.4504 35.625C34.995 35.625 32.9973 37.6227 32.9973 40.0781C32.9973 42.5336 34.995 44.5312 37.4504 44.5312C39.9059 44.5312 41.9036 42.5336 41.9036 40.0781C41.9036 37.6227 39.9059 35.625 37.4504 35.625ZM37.4504 42.1875C36.2874 42.1875 35.3411 41.2412 35.3411 40.0781C35.3411 38.915 36.2874 37.9688 37.4504 37.9688C38.6135 37.9688 39.5598 38.915 39.5598 40.0781C39.5598 41.2412 38.6135 42.1875 37.4504 42.1875Z" fill="#FB5A16"/>
<path d="M48.3879 35.625C45.9325 35.625 43.9348 37.6227 43.9348 40.0781C43.9348 42.5336 45.9325 44.5312 48.3879 44.5312C50.8434 44.5312 52.8411 42.5336 52.8411 40.0781C52.8411 37.6227 50.8434 35.625 48.3879 35.625ZM48.3879 42.1875C47.2249 42.1875 46.2786 41.2412 46.2786 40.0781C46.2786 38.915 47.2249 37.9688 48.3879 37.9688C49.551 37.9688 50.4973 38.915 50.4973 40.0781C50.4973 41.2412 49.551 42.1875 48.3879 42.1875Z" fill="#FB5A16"/>
<path d="M15.5754 23.4375C13.12 23.4375 11.1223 25.4352 11.1223 27.8906C11.1223 30.3461 13.12 32.3438 15.5754 32.3438C18.0309 32.3438 20.0286 30.3461 20.0286 27.8906C20.0286 25.4352 18.0309 23.4375 15.5754 23.4375ZM15.5754 30C14.4124 30 13.4661 29.0537 13.4661 27.8906C13.4661 26.7275 14.4124 25.7812 15.5754 25.7812C16.7385 25.7812 17.6848 26.7275 17.6848 27.8906C17.6848 29.0537 16.7385 30 15.5754 30Z" fill="#FB5A16"/>
<path d="M37.4504 23.4375C34.995 23.4375 32.9973 25.4352 32.9973 27.8906C32.9973 30.3461 34.995 32.3438 37.4504 32.3438C39.9059 32.3438 41.9036 30.3461 41.9036 27.8906C41.9036 25.4352 39.9059 23.4375 37.4504 23.4375ZM37.4504 30C36.2874 30 35.3411 29.0537 35.3411 27.8906C35.3411 26.7275 36.2874 25.7812 37.4504 25.7812C38.6135 25.7812 39.5598 26.7275 39.5598 27.8906C39.5598 29.0537 38.6135 30 37.4504 30Z" fill="#FB5A16"/>
<path d="M48.3879 23.4375C45.9325 23.4375 43.9348 25.4352 43.9348 27.8906C43.9348 30.3461 45.9325 32.3438 48.3879 32.3438C50.8434 32.3438 52.8411 30.3461 52.8411 27.8906C52.8411 25.4352 50.8434 23.4375 48.3879 23.4375ZM48.3879 30C47.2249 30 46.2786 29.0537 46.2786 27.8906C46.2786 26.7275 47.2249 25.7812 48.3879 25.7812C49.551 25.7812 50.4973 26.7275 50.4973 27.8906C50.4973 29.0537 49.551 30 48.3879 30Z" fill="#FB5A16"/>
<path d="M26.5129 23.4375C24.0575 23.4375 22.0598 25.4352 22.0598 27.8906C22.0598 30.3461 24.0575 32.3438 26.5129 32.3438C28.9684 32.3438 30.9661 30.3461 30.9661 27.8906C30.9661 25.4352 28.9684 23.4375 26.5129 23.4375ZM26.5129 30C25.3499 30 24.4036 29.0537 24.4036 27.8906C24.4036 26.7275 25.3499 25.7812 26.5129 25.7812C27.676 25.7812 28.6223 26.7275 28.6223 27.8906C28.6223 29.0537 27.676 30 26.5129 30Z" fill="#FB5A16"/>
<path d="M14.9578 42.0901L14.9578 42.0902C15.1575 42.4288 15.0449 42.8652 14.7062 43.0649L14.6046 42.8927L14.7062 43.0649L13.6812 43.6694L14.9079 44.3776C14.9079 44.3776 14.9079 44.3776 14.9079 44.3776C15.2484 44.5742 15.3651 45.0095 15.1685 45.35L15.1685 45.35C15.0365 45.5785 14.797 45.706 14.5515 45.706C14.4306 45.706 14.3079 45.6751 14.1961 45.6106L12.9691 44.9022L12.9581 46.0927C12.9545 46.4836 12.6365 46.798 12.2464 46.798C12.246 46.798 12.2449 46.798 12.2434 46.798C12.2418 46.798 12.2398 46.798 12.2375 46.7979C11.8454 46.7931 11.5308 46.4719 11.5345 46.0795M14.9578 42.0901L11.7344 46.0814M14.9578 42.0901C14.7581 41.7516 14.3218 41.6389 13.9831 41.8385L13.983 41.8385M14.9578 42.0901L13.983 41.8385M11.5345 46.0795L11.7344 46.0814M11.5345 46.0795V46.0795L11.7344 46.0814M11.5345 46.0795L11.5529 44.0845M11.7344 46.0814L11.754 43.9697L11.654 44.1429L11.5529 44.0845M11.5529 44.0845L9.2119 42.7329M11.5529 44.0845L9.2119 42.7329M9.2119 42.7329V45.4359L10.9487 46.4176C11.291 46.611 11.4117 47.0453 11.2182 47.3876C11.0872 47.6194 10.8457 47.7493 10.598 47.7493C10.4791 47.7493 10.3586 47.7194 10.2482 47.6571L9.2119 47.0714V48.4881C9.2119 48.8813 8.89317 49.2 8.50003 49.2C8.10688 49.2 7.78815 48.8813 7.78815 48.4881V47.0714L6.75187 47.6571C6.64147 47.7194 6.52091 47.7493 6.40203 47.7493C6.15432 47.7493 5.91285 47.6194 5.78183 47.3876L5.78182 47.3876C5.58841 47.0453 5.70902 46.611 6.0513 46.4176L7.78808 45.4359V42.7329L5.44699 44.0845L5.46498 46.0796L5.46498 46.0796L5.26499 46.0814C5.26758 46.3641 5.04045 46.5954 4.75776 46.5979L9.2119 42.7329ZM5.46505 36.9203C5.46866 36.5271 5.15274 36.2056 4.75961 36.2021L4.75961 36.202H4.75782H4.75781H4.75781H4.7578H4.75779H4.75778H4.75777H4.75776H4.75775H4.75774H4.75773H4.75772H4.75771H4.7577H4.7577H4.75769H4.75768H4.75767H4.75766H4.75765H4.75764H4.75763H4.75762H4.75761H4.7576H4.75759H4.75759H4.75758H4.75757H4.75756H4.75755H4.75754H4.75753H4.75752H4.75751H4.7575H4.75749H4.75748H4.75748H4.75747H4.75746H4.75745H4.75744H4.75743H4.75742H4.75741H4.7574H4.75739H4.75738H4.75738H4.75737H4.75736H4.75735H4.75734H4.75733H4.75732H4.75731H4.7573H4.75729H4.75728H4.75727H4.75727H4.75726H4.75725H4.75724H4.75723H4.75722H4.75721H4.7572H4.75719H4.75718H4.75717H4.75717H4.75716H4.75715H4.75714H4.75713H4.75712H4.75711H4.7571H4.75709H4.75708H4.75707H4.75707H4.75706H4.75705H4.75704H4.75703H4.75702H4.75701H4.757H4.75699H4.75698H4.75697H4.75696H4.75696H4.75695H4.75694H4.75693H4.75692H4.75691H4.7569H4.75689H4.75688H4.75687H4.75687H4.75686H4.75685H4.75684H4.75683H4.75682H4.75681H4.7568H4.75679H4.75678H4.75677H4.75677H4.75676H4.75675H4.75674H4.75673H4.75672H4.75671H4.7567H4.75669H4.75668H4.75667H4.75667H4.75666H4.75665H4.75664H4.75663H4.75662H4.75661H4.7566H4.75659H4.75658H4.75657H4.75657H4.75656H4.75655H4.75654H4.75653H4.75652H4.75651H4.7565H4.75649H4.75648H4.75647H4.75647H4.75646H4.75645H4.75644H4.75643H4.75642H4.75641H4.7564H4.75639H4.75638H4.75638H4.75637H4.75636H4.75635H4.75634H4.75633H4.75632H4.75631H4.7563H4.75629H4.75628H4.75628H4.75627H4.75626H4.75625H4.75624H4.75623H4.75622H4.75621H4.7562H4.75619H4.75618H4.75618H4.75617H4.75616H4.75615H4.75614H4.75613H4.75612H4.75611H4.7561H4.75609H4.75608H4.75608H4.75607H4.75606H4.75605H4.75604H4.75603H4.75602H4.75601H4.756H4.75599H4.75599H4.75598H4.75597H4.75596H4.75595H4.75594H4.75593H4.75592H4.75591H4.7559H4.75589H4.75589H4.75588H4.75587H4.75586H4.75585H4.75584H4.75583H4.75582H4.75581H4.7558H4.75579H4.75579H4.75578H4.75577H4.75576H4.75575H4.75574H4.75573H4.75572H4.75571H4.7557H4.75569H4.75569H4.75568H4.75567H4.75566H4.75565H4.75564H4.75563H4.75562H4.75561H4.7556H4.75559H4.75559H4.75558H4.75557H4.75556H4.75555H4.75554H4.75553H4.75552H4.75551H4.7555H4.75549H4.75549H4.75548H4.75547H4.75546H4.75545H4.75544H4.75543H4.75542H4.75541H4.7554H4.75539H4.75539H4.75538H4.75537H4.75536H4.75535H4.75534H4.75533H4.75532H4.75531H4.7553H4.75529H4.75529H4.75528H4.75527H4.75526H4.75525H4.75524H4.75523H4.75522H4.75521H4.7552H4.75519H4.75519H4.75518H4.75517H4.75516H4.75515H4.75514H4.75513H4.75512H4.75511H4.7551H4.75509H4.75508H4.75508H4.75507H4.75506H4.75505H4.75504H4.75503H4.75502H4.75501H4.755H4.75499H4.75498H4.75497H4.75497H4.75496H4.75495H4.75494H4.75493H4.75492H4.75491H4.7549H4.75489H4.75488H4.75487H4.75486H4.75486H4.75485H4.75484H4.75483H4.75482H4.75481H4.7548H4.75479H4.75478H4.75477H4.75476H4.75475H4.75475H4.75474H4.75473H4.75472H4.75471H4.7547H4.75469H4.75468H4.75467H4.75466H4.75465H4.75464H4.75464H4.75463H4.75462H4.75461H4.7546H4.75459H4.75458H4.75457H4.75456H4.75455H4.75454H4.75453H4.75452H4.75452H4.75451H4.7545H4.75449H4.75448H4.75447H4.75446H4.75445H4.75444H4.75443H4.75442H4.75441H4.7544H4.7544H4.75439H4.75438H4.75437H4.75436H4.75435H4.75434H4.75433H4.75432H4.75431H4.7543H4.75429H4.75428H4.75427H4.75427H4.75426H4.75425H4.75424H4.75423H4.75422H4.75421H4.7542H4.75419H4.75418H4.75417H4.75416H4.75415H4.75414H4.75413H4.75413H4.75412H4.75411H4.7541H4.75409H4.75408H4.75407H4.75406H4.75405H4.75404H4.75403H4.75402H4.75401H4.754H4.75399H4.75399H4.75398H4.75397H4.75396H4.75395H4.75394H4.75393H4.75392H4.75391H4.7539H4.75389H4.75388H4.75387H4.75386H4.75385H4.75385H4.75384H4.75383H4.75382H4.75381H4.7538H4.75379H4.75378H4.75377H4.75376H4.75375H4.75374H4.75373H4.75372H4.75371H4.7537H4.75369H4.75369H4.75368H4.75367H4.75366H4.75365H4.75364H4.75363H4.75362H4.75361H4.7536H4.75359H4.75358H4.75357H4.75356H4.75355H4.75354H4.75353H4.75352H4.75352H4.75351H4.7535H4.75349H4.75348H4.75347H4.75346H4.75345H4.75344H4.75343H4.75342H4.75341H4.7534H4.75339H4.75338H4.75337H4.75336H4.75335H4.75334H4.75333H4.75332H4.75332H4.75331H4.7533H4.75329H4.75328H4.75327H4.75326H4.75325H4.75324H4.75323H4.75322H4.75321H4.7532H4.75319H4.75318H4.75317H4.75316H4.75315H4.75314H4.75313H4.75312H4.75311C4.36296 36.202 4.0449 36.5165 4.04139 36.9075C4.04139 36.9075 4.04139 36.9076 4.04139 36.9076L4.03063 38.0976L2.80402 37.3894C2.4635 37.1927 2.02811 37.3095 1.83156 37.6499C1.63499 37.9904 1.75164 38.4258 2.09211 38.6223L3.31901 39.3307L2.29367 39.935L2.29367 39.935C1.95499 40.1347 1.84226 40.5711 2.04184 40.9098L2.04187 40.9098C2.17477 41.1352 2.41245 41.2603 2.65566 41.2603C2.7787 41.2603 2.90335 41.2284 3.01653 41.1617L3.01662 41.1617L4.73559 40.1487L7.07635 41.5001L4.73514 42.8518L3.01668 41.8385C3.01667 41.8385 3.01667 41.8385 3.01667 41.8385C2.67816 41.6388 2.24159 41.7514 2.04188 42.0901C1.84218 42.4287 1.95483 42.8652 2.29353 43.0648L3.31873 43.6693L5.26506 36.9185M5.46505 36.9203L5.26506 36.9185M5.46505 36.9203L5.46505 36.9203L5.26506 36.9185M5.46505 36.9203L5.44706 38.9153M5.26506 36.9185L5.24601 39.0302M5.44706 38.9153L5.34602 38.857L5.24601 39.0302M5.44706 38.9153L5.44601 39.032L5.24601 39.0302M5.44706 38.9153L5.24601 39.0302M13.983 41.8385L12.2648 42.8517L9.9237 41.5L12.2644 40.1485L13.9831 41.1615C13.9831 41.1615 13.9831 41.1615 13.9831 41.1616C14.0965 41.2284 14.2212 41.2602 14.3441 41.2602C14.5873 41.2602 14.825 41.1351 14.9578 40.9097L14.9579 40.9097M13.983 41.8385L14.9579 40.9097M14.9579 40.9097C15.1575 40.571 15.0447 40.1346 14.7061 39.9349L14.706 39.9349L13.6809 39.3307M14.9579 40.9097L13.6809 39.3307M13.6809 39.3307L14.9079 38.6223L14.8079 38.4491L14.9079 38.6223C15.2483 38.4258 15.365 37.9904 15.1684 37.6499C14.9718 37.3094 14.5364 37.1927 14.196 37.3894L12.9694 38.0976L12.9586 36.9075C12.9586 36.9075 12.9586 36.9075 12.9586 36.9075C12.9551 36.5152 12.6336 36.1969 12.2399 36.2021M13.6809 39.3307L6.0513 36.5824C6.0513 36.5824 6.0513 36.5824 6.0513 36.5824C5.70902 36.389 5.5884 35.9547 5.78183 35.6124L5.78184 35.6124C5.97535 35.2701 6.40944 35.1494 6.75186 35.3429L6.65346 35.5171L6.75186 35.3429L7.78815 35.9286V34.5119C7.78815 34.1187 8.10688 33.8 8.50003 33.8C8.89317 33.8 9.2119 34.1187 9.2119 34.5119V35.9286L10.2481 35.3429C10.5905 35.1493 11.0248 35.2701 11.2182 35.6123L11.2182 35.6124C11.4116 35.9547 11.291 36.3889 10.9487 36.5824L9.2119 37.564V40.267L11.5529 38.9153L11.5349 36.9203C11.5349 36.9203 11.5349 36.9203 11.5349 36.9203C11.5313 36.5273 11.847 36.2058 12.2399 36.2021M12.2399 36.2021C12.24 36.2021 12.2402 36.2021 12.2404 36.2021L12.2422 36.4021L12.2394 36.2021C12.2396 36.2021 12.2397 36.2021 12.2399 36.2021ZM4.75326 46.7979C4.75421 46.798 4.7575 46.798 4.76165 46.7979L2.19204 44.5507C1.94723 44.6921 1.86335 45.0051 2.0047 45.2499L1.83149 45.3499C1.83149 45.3499 1.83149 45.3499 1.83149 45.3499C1.96347 45.5786 2.20305 45.706 2.44846 45.706C2.56941 45.706 2.69208 45.6751 2.80392 45.6105C2.80392 45.6105 2.80393 45.6105 2.80393 45.6105L4.03056 44.9022L4.04132 46.0925C4.04483 46.4834 4.36287 46.7979 4.75305 46.7979H4.75326ZM7.98808 40.3825V40.6134L7.78808 40.4979V40.267L7.98808 40.3825ZM7.78808 37.5641L7.88968 37.6215L7.98808 37.4474H7.78808V37.5641ZM4.2296 38.2125L4.22752 38.4422L4.02855 38.3274L4.2296 38.2125ZM12.7702 44.7873L12.7723 44.5576L12.9713 44.6725L12.7702 44.7873Z" fill="#FB5A16" stroke="#FB5A16" stroke-width="0.4"/>
</svg>