<svg width="60" height="60" viewBox="0 0 60 60" fill="none" xmlns="http://www.w3.org/2000/svg">
<path d="M1.00505 31.0052C1.55714 31.0052 2.00522 30.5581 2.00522 30.005C2.00522 14.5634 14.5683 2.00033 30.0099 2.00033C36.3379 2.00033 42.3899 4.11569 47.3148 8.00133H42.0119C41.4598 8.00133 41.0117 8.44841 41.0117 9.0015C41.0117 9.55459 41.4598 10.0017 42.0119 10.0017H49.9282C49.9942 10.0077 50.0562 10.0087 50.1212 10.0017H51.0124V1.00017C51.0124 0.447075 50.5643 0 50.0122 0C49.4601 0 49.0121 0.447075 49.0121 1.00017V6.81113C43.6552 2.4084 36.992 0 30.0099 0C13.4651 0 0.00488281 13.4602 0.00488281 30.005C0.00488281 30.5581 0.452957 31.0052 1.00505 31.0052Z" fill="#FB5A16"/>
<path fill-rule="evenodd" clip-rule="evenodd" d="M30.0098 8.00133C17.8767 8.00133 8.0061 17.872 8.0061 30.005C8.0061 42.138 17.8767 52.0087 30.0098 52.0087C42.1428 52.0087 52.0134 42.138 52.0134 30.005C52.0134 25.9571 50.9148 22.1611 49 18.8994L47.3267 20C47.5656 20.412 47.7903 20.8332 48 21.2631C49.2892 23.9055 50.0131 26.8723 50.0131 30.005C50.0131 41.0348 41.0396 50.0083 30.0098 50.0083C18.9799 50.0083 10.0064 41.0348 10.0064 30.005C10.0064 18.9752 18.9799 10.0017 30.0098 10.0017C36.5385 10.0017 42.3467 13.1456 46 17.9991L47.5 16.6678C43.4759 11.4033 37.1327 8.00133 30.0098 8.00133Z" fill="#FB5A16"/>
<path d="M30.0098 15.0018C30.5618 15.0018 31.0098 14.5548 31.0098 14.0018V12.0018C31.0098 11.4488 30.5618 11.0018 30.0098 11.0018C29.4578 11.0018 29.0098 11.4488 29.0098 12.0018V14.0018C29.0098 14.5548 29.4578 15.0018 30.0098 15.0018Z" fill="#FB5A16"/>
<path d="M30.0098 45.0075C29.4578 45.0075 29.0098 45.4545 29.0098 46.0075V48.0075C29.0098 48.5605 29.4578 49.0075 30.0098 49.0075C30.5618 49.0075 31.0098 48.5605 31.0098 48.0075V46.0075C31.0098 45.4545 30.5618 45.0075 30.0098 45.0075Z" fill="#FB5A16"/>
<path d="M46.0125 31.0048H48.0125C48.5645 31.0048 49.0125 30.5578 49.0125 30.0048C49.0125 29.4518 48.5645 29.0048 48.0125 29.0048H46.0125C45.4605 29.0048 45.0125 29.4518 45.0125 30.0048C45.0125 30.5578 45.4605 31.0048 46.0125 31.0048Z" fill="#FB5A16"/>
<path d="M14.0068 29.0048H12.0068C11.4548 29.0048 11.0068 29.4518 11.0068 30.0048C11.0068 30.5578 11.4548 31.0048 12.0068 31.0048H14.0068C14.5588 31.0048 15.0068 30.5578 15.0068 30.0048C15.0068 29.4518 14.5588 29.0048 14.0068 29.0048Z" fill="#FB5A16"/>
<path d="M31.01 25.1462V20.0033C31.01 19.4502 30.5619 19.0032 30.0098 19.0032C29.4577 19.0032 29.0096 19.4502 29.0096 20.0033V25.1462C27.2894 25.5933 26.0091 27.1455 26.0091 29.0048C26.0091 29.745 26.2242 30.4291 26.5762 31.0242L18.3009 39.2996C17.9098 39.6906 17.9098 40.3227 18.3009 40.7138C18.4959 40.9088 18.7519 41.0068 19.008 41.0068C19.264 41.0068 19.5201 40.9088 19.7151 40.7138L27.9905 32.4384C28.5856 32.7905 29.2697 33.0055 30.0098 33.0055C32.2162 33.0055 34.0105 31.2112 34.0105 29.0048C34.0105 27.1455 32.7303 25.5933 31.01 25.1462ZM30.0098 31.0052C28.9066 31.0052 28.0095 30.108 28.0095 29.0048C28.0095 27.9017 28.9066 27.0045 30.0098 27.0045C31.113 27.0045 32.0102 27.9017 32.0102 29.0048C32.0102 30.108 31.113 31.0052 30.0098 31.0052Z" fill="#FB5A16"/>
<path d="M11.8958 52.6687C11.5658 53.1077 11.6558 53.7377 12.1058 54.0677C12.2758 54.1977 12.4858 54.2577 12.6958 54.2577C13.0058 54.2577 13.3058 54.1277 13.5058 53.8577C13.8258 53.4187 13.7358 52.7887 13.2958 52.4587C12.8558 52.1287 12.2268 52.2187 11.8958 52.6687Z" fill="#FB5A16"/>
<path d="M7.23587 46.2776C6.91587 45.8386 6.28587 45.7276 5.83587 46.0486C5.38587 46.3786 5.28587 46.9986 5.60587 47.4476C5.80587 47.7186 6.10587 47.8676 6.42587 47.8676C6.62587 47.8676 6.82587 47.8076 7.00587 47.6786C7.45487 47.3576 7.55587 46.7276 7.23587 46.2776Z" fill="#FB5A16"/>
<path d="M7.625 48.458C7.215 48.827 7.175 49.458 7.545 49.867C7.735 50.097 8.015 50.208 8.295 50.208C8.525 50.208 8.765 50.128 8.955 49.958C9.365 49.588 9.405 48.958 9.035 48.548C8.676 48.128 8.046 48.098 7.625 48.458Z" fill="#FB5A16"/>
<path d="M11.0664 50.6084C10.6664 50.2384 10.0264 50.2684 9.65637 50.6694C9.27637 51.0784 9.30637 51.7094 9.71637 52.0894C9.90637 52.2594 10.1464 52.3494 10.3864 52.3494C10.6564 52.3494 10.9264 52.2394 11.1264 52.0294C11.4964 51.6194 11.4764 50.9894 11.0664 50.6194C11.0664 50.6084 11.0664 50.6084 11.0664 50.6084Z" fill="#FB5A16"/>
<path d="M5.67552 43.8472C5.66552 43.8472 5.66551 43.8472 5.66551 43.8472C5.39551 43.3672 4.78551 43.1972 4.30551 43.4772C3.82551 43.7482 3.65551 44.3572 3.93551 44.8372C4.11551 45.1562 4.45551 45.3372 4.80551 45.3372C4.96551 45.3372 5.14552 45.2972 5.29552 45.2072C5.77552 44.9372 5.94552 44.3262 5.67552 43.8472Z" fill="#FB5A16"/>
<path d="M58.9546 32.125C58.9746 32.125 58.9846 32.125 58.9946 32.125C59.5346 32.125 59.9746 31.694 59.9946 31.165C60.0146 30.604 59.5846 30.144 59.0346 30.125C58.4846 30.104 58.0146 30.535 57.9946 31.085C57.9746 31.635 58.4036 32.105 58.9546 32.125Z" fill="#FB5A16"/>
<path d="M1.26489 33.9953C1.81489 33.9343 2.21489 33.4443 2.15489 32.8943C2.09489 32.3443 1.60489 31.9443 1.05489 32.0043C0.504894 32.0543 0.104894 32.5543 0.164894 33.0943C0.214894 33.6143 0.654894 33.9943 1.15489 33.9943C1.19489 33.9953 1.22489 33.9953 1.26489 33.9953Z" fill="#FB5A16"/>
<path d="M1.82494 36.9358C2.36494 36.8258 2.71494 36.2958 2.59494 35.7558C2.48494 35.2158 1.95494 34.8648 1.41494 34.9848C0.874935 35.0948 0.524935 35.6258 0.644935 36.1658C0.734935 36.6358 1.15494 36.9558 1.61494 36.9558C1.68394 36.9558 1.75494 36.9558 1.82494 36.9358Z" fill="#FB5A16"/>
<path d="M4.36517 41.2568C4.14517 40.7568 3.55517 40.5268 3.04517 40.7468C2.54517 40.9668 2.31517 41.5568 2.53517 42.0658C2.70517 42.4358 3.06517 42.6668 3.45517 42.6668C3.58517 42.6668 3.72517 42.6368 3.85517 42.5758C4.35417 42.3568 4.58417 41.7668 4.36517 41.2568Z" fill="#FB5A16"/>
<path d="M3.33411 38.5563C3.17411 38.0263 2.60411 37.7363 2.08411 37.9063C1.55411 38.0763 1.26411 38.6363 1.43411 39.1673C1.57411 39.5873 1.96411 39.8563 2.38411 39.8563C2.48411 39.8563 2.59411 39.8463 2.69411 39.8163C3.21511 39.6463 3.50511 39.0753 3.33411 38.5563Z" fill="#FB5A16"/>
<path d="M29.4696 57.9997C28.9196 57.9887 28.4596 58.4297 28.4496 58.9787C28.4396 59.5397 28.8796 59.9887 29.4296 59.9997C29.4396 59.9997 29.4496 59.9997 29.4496 59.9997C29.9996 59.9997 30.4396 59.5686 30.4496 59.0196C30.4586 58.4696 30.0196 58.0097 29.4696 57.9997Z" fill="#FB5A16"/>
<path d="M52.1435 47.1478C51.8035 47.5778 51.8835 48.2088 52.3135 48.5478C52.5035 48.6878 52.7135 48.7578 52.9335 48.7578C53.2235 48.7578 53.5235 48.6278 53.7235 48.3668C54.0635 47.9368 53.9835 47.3068 53.5435 46.9678C53.1035 46.6288 52.4835 46.7078 52.1435 47.1478Z" fill="#FB5A16"/>
<path d="M45.8414 53.0888C45.3914 53.3988 45.2714 54.0278 45.5914 54.4788C45.7814 54.7588 46.0914 54.9088 46.4114 54.9088C46.6114 54.9088 46.8014 54.8588 46.9814 54.7388C47.4314 54.4288 47.5514 53.7998 47.2314 53.3488C46.9214 52.8888 46.3024 52.7788 45.8414 53.0888Z" fill="#FB5A16"/>
<path d="M48.1428 51.3275C47.7228 51.6875 47.6728 52.3175 48.0328 52.7375C48.2328 52.9675 48.5128 53.0885 48.7928 53.0885C49.0228 53.0885 49.2528 53.0085 49.4428 52.8485C49.8628 52.4885 49.9128 51.8585 49.5528 51.4385C49.1918 51.0185 48.5628 50.9685 48.1428 51.3275Z" fill="#FB5A16"/>
<path d="M55.1729 44.4464C54.7029 44.1564 54.0829 44.3064 53.7929 44.7664C53.5029 45.2364 53.6429 45.8564 54.1129 46.1464C54.2829 46.2474 54.4629 46.2964 54.6429 46.2964C54.9729 46.2964 55.3029 46.1364 55.4929 45.8254C55.7839 45.3574 55.6439 44.7364 55.1729 44.4464Z" fill="#FB5A16"/>
<path d="M50.2532 49.3382C49.8632 49.7372 49.8832 50.3672 50.2832 50.7482C50.4732 50.9372 50.7232 51.0272 50.9732 51.0272C51.2332 51.0272 51.5032 50.9272 51.6932 50.7172C52.0732 50.3172 52.0632 49.6872 51.6632 49.3072C51.2632 48.9272 50.6322 48.9382 50.2532 49.3382Z" fill="#FB5A16"/>
<path d="M58.8635 33.1145C58.3235 33.0355 57.8135 33.4255 57.7335 33.9655C57.6535 34.5155 58.0335 35.0155 58.5835 35.0955C58.6335 35.1055 58.6835 35.1055 58.7235 35.1055C59.2135 35.1055 59.6435 34.7465 59.7135 34.2465C59.7945 33.7055 59.4145 33.1945 58.8635 33.1145Z" fill="#FB5A16"/>
<path d="M58.3943 36.075C57.8543 35.945 57.3143 36.275 57.1743 36.805C57.0443 37.345 57.3743 37.885 57.9043 38.025C57.9843 38.046 58.0643 38.055 58.1443 38.055C58.5943 38.055 59.0043 37.745 59.1143 37.295C59.2543 36.756 58.9233 36.216 58.3943 36.075Z" fill="#FB5A16"/>
<path d="M15.7062 54.069C15.2262 53.79 14.6162 53.939 14.3362 54.42C14.0462 54.89 14.2062 55.51 14.6762 55.79C14.8362 55.89 15.0162 55.93 15.1862 55.93C15.5262 55.93 15.8562 55.76 16.0462 55.44C16.3362 54.969 16.1772 54.359 15.7062 54.069Z" fill="#FB5A16"/>
<path d="M57.6133 38.9765C57.0933 38.7875 56.5133 39.0565 56.3333 39.5765C56.1433 40.0975 56.4033 40.6675 56.9233 40.8565C57.0333 40.8965 57.1533 40.9175 57.2633 40.9175C57.6733 40.9175 58.0633 40.6675 58.2033 40.2575C58.3943 39.7355 58.1333 39.1665 57.6133 38.9765Z" fill="#FB5A16"/>
<path d="M56.534 41.7769C56.044 41.5379 55.434 41.7369 55.194 42.2369C54.954 42.7369 55.164 43.3379 55.654 43.5769C55.794 43.6469 55.944 43.6779 56.094 43.6779C56.464 43.6779 56.824 43.4679 56.994 43.1169C57.234 42.6159 57.034 42.0169 56.534 41.7769Z" fill="#FB5A16"/>
<path d="M26.5791 57.7996C26.0291 57.7296 25.5391 58.1186 25.4691 58.6696C25.3991 59.2196 25.7891 59.7196 26.3391 59.7786V59.7896C26.3791 59.7896 26.4191 59.7896 26.4591 59.7896C26.9591 59.7896 27.3891 59.4196 27.4491 58.9086C27.5191 58.3596 27.1281 57.8686 26.5791 57.7996Z" fill="#FB5A16"/>
<path d="M20.9481 56.5094C20.4281 56.3284 19.8581 56.5994 19.6781 57.1294C19.4981 57.6494 19.7781 58.2194 20.2981 58.3994C20.4081 58.4294 20.5181 58.4494 20.6281 58.4494C21.0381 58.4494 21.4281 58.1894 21.5681 57.7794C21.7481 57.2494 21.4681 56.6794 20.9481 56.5094Z" fill="#FB5A16"/>
<path d="M23.7288 57.2995C23.1888 57.1795 22.6588 57.5095 22.5288 58.0495C22.4088 58.5895 22.7488 59.1295 23.2788 59.2495C23.3588 59.2695 23.4288 59.2695 23.5088 59.2695C23.9588 59.2695 24.3788 58.9595 24.4788 58.4995C24.6078 57.9595 24.2688 57.4195 23.7288 57.2995Z" fill="#FB5A16"/>
<path d="M18.2678 55.4292C17.7578 55.1892 17.1678 55.4082 16.9378 55.9082C16.7078 56.4082 16.9178 57.0092 17.4178 57.2382C17.5578 57.2992 17.6978 57.3282 17.8378 57.3282C18.2178 57.3282 18.5778 57.1182 18.7478 56.7492C18.9778 56.2492 18.7678 55.6582 18.2678 55.4292Z" fill="#FB5A16"/>
<path d="M35.2305 57.5196C34.6905 57.6196 34.3305 58.1496 34.4305 58.6896C34.5205 59.1696 34.9505 59.5006 35.4205 59.5006C35.4805 59.5006 35.5405 59.5006 35.6005 59.4896C36.1405 59.3806 36.5005 58.8596 36.4005 58.3196C36.3005 57.7696 35.7705 57.4196 35.2305 57.5196Z" fill="#FB5A16"/>
<path d="M38.0412 56.8395C37.5112 56.9885 37.2112 57.5495 37.3712 58.0785C37.5012 58.5095 37.9012 58.7895 38.3312 58.7895C38.4212 58.7895 38.5212 58.7785 38.6212 58.7495C39.1512 58.5895 39.4512 58.0285 39.2912 57.4995C39.1302 56.9795 38.5712 56.6795 38.0412 56.8395Z" fill="#FB5A16"/>
<path d="M40.7715 55.8593C40.2615 56.0693 40.0215 56.6593 40.2315 57.1703C40.3915 57.5503 40.7615 57.7793 41.1515 57.7793C41.2815 57.7793 41.4115 57.7593 41.5415 57.7103C42.0515 57.4893 42.2915 56.9093 42.0815 56.3993C41.8605 55.8893 41.2815 55.6493 40.7715 55.8593Z" fill="#FB5A16"/>
<path d="M32.3592 57.9086C31.8092 57.9596 31.3992 58.4386 31.4492 58.9886C31.4892 59.5096 31.9292 59.9086 32.4492 59.9086C32.4692 59.9086 32.4992 59.9086 32.5292 59.9086V59.8986C33.0792 59.8586 33.4892 59.3786 33.4392 58.8286C33.3992 58.2796 32.9102 57.8686 32.3592 57.9086Z" fill="#FB5A16"/>
<path d="M43.381 54.6091C42.891 54.8691 42.711 55.4791 42.981 55.9601C43.161 56.3001 43.501 56.4891 43.861 56.4891C44.021 56.4891 44.181 56.4491 44.331 56.3591C44.821 56.0991 45.001 55.4891 44.731 55.0091C44.472 54.5191 43.861 54.3391 43.381 54.6091Z" fill="#FB5A16"/>
</svg>