<svg width="63" height="58" viewBox="0 0 63 58" fill="none" xmlns="http://www.w3.org/2000/svg">
<g clip-path="url(#clip0)">
<path fill-rule="evenodd" clip-rule="evenodd" d="M43.3972 16.7089C42.2374 15.7058 40.9853 17.0063 40.9853 17.0063L36.6346 12.3115C36.6 12.2765 36.6 12.2357 36.5596 12.2007C34.869 10.3461 34.4939 7.84414 35.6941 5.34801C37.9444 1.63881 42.751 1.06727 45.5668 4.58984L47.6325 6.44444L49.8828 4.32157C50.0328 4.13494 50.2233 3.98331 50.3733 3.83167C53.2987 1.90126 56.2646 2.1637 58.2206 3.72087C58.8611 4.28658 59.3862 5.00975 59.8363 5.87873C60.7018 8.30488 60.2517 10.6144 58.6361 12.2824C58.6015 12.3173 58.5611 12.3582 58.5611 12.3932L55.6876 15.4842C55.526 15.6591 55.3067 15.7758 55.0702 15.8166L54.3143 15.9391C54.095 15.9741 53.8931 16.079 53.7373 16.2365L52.3986 17.5837V17.6245L48.723 21.2987C48.6076 21.4154 48.6076 21.602 48.723 21.7128C48.8384 21.8236 49.0231 21.8236 49.1731 21.7128L52.814 18.0794L53.1891 18.4935L49.5482 22.0919C49.4385 22.2435 49.4385 22.4302 49.5482 22.5468C49.6636 22.6576 49.8482 22.6576 49.9636 22.5468L53.6045 18.9134L53.9796 19.3275L50.379 22.9259C50.2694 23.0367 50.2694 23.2292 50.379 23.34C50.4945 23.4508 50.6791 23.4508 50.7945 23.34L54.3604 19.7824L54.7355 20.1965L51.2099 23.754C51.0945 23.8649 51.0945 24.0573 51.2099 24.1681C51.3253 24.2789 51.51 24.2789 51.6254 24.1681L55.3414 20.4589L56.5762 19.24C56.8647 18.9543 57.0089 18.5577 56.9743 18.1553L56.9281 17.642C56.8993 17.3329 57.0147 17.0238 57.234 16.8022C58.3534 15.665 59.7555 14.4985 60.7076 13.303L60.7422 13.268C60.7422 13.268 60.7422 13.2271 60.7768 13.2271C61.827 11.8275 62.4675 10.0837 62.4675 8.18824C62.4675 7.84998 62.4675 7.50588 62.4271 7.1268C62.127 4.54902 60.5864 2.35616 58.4457 1.10226C58.4053 1.10226 58.3707 1.06727 58.3303 1.06727C58.2957 1.02645 58.2553 1.02645 58.2206 0.991453C57.0955 0.33826 55.7799 0 54.3951 0C51.5792 0 49.0635 1.44052 47.6382 3.67421C46.1726 1.44052 43.6973 0 40.8814 0C36.4154 0 32.7744 3.67421 32.7744 8.1824C32.7744 10.1886 33.4899 12.0082 34.6497 13.4488C34.9497 13.787 35.2902 14.0903 35.6249 14.3936L38.1752 17.0472L47.2632 26.2443C48.925 26.8859 47.6902 22.646 46.5708 20.803C45.3706 18.8376 44.759 17.887 43.3972 16.7089Z" fill="#FB5A16"/>
<path d="M3.17357 22.5993C4.13718 21.5145 5.43545 20.9838 7.06263 20.9838C8.90906 20.9838 10.2073 21.7945 10.6747 22.9901C11.696 21.6545 13.0751 20.9838 14.8638 20.9838C17.5123 20.9838 18.8337 22.5177 18.8337 25.5562V32.718C18.8337 33.2778 18.3663 33.7502 17.8124 33.7502H16.6814C16.1275 33.7502 15.6601 33.2778 15.6601 32.718V26.3902C15.6601 24.8038 14.9446 23.9932 13.5367 23.9932C12.325 23.9932 11.471 24.4656 10.9748 25.4454C10.9748 25.5562 11.0036 26.1685 11.0036 26.3668V32.7238C11.0036 33.2837 10.5362 33.7561 9.98231 33.7561H8.85136C8.29743 33.7561 7.83005 33.2837 7.83005 32.7238V26.1685C7.83005 24.833 7.08571 23.9932 5.76435 23.9932C4.63341 23.9932 3.75058 24.4364 3.17357 25.3287V32.718C3.17357 33.2778 2.70619 33.7502 2.15225 33.7502H1.02131C0.46738 33.7502 0 33.272 0 32.718V22.2377C0 21.6778 0.46738 21.2054 1.02131 21.2054H2.15225C2.70619 21.2054 3.17357 21.6778 3.17357 22.2377V22.5993Z" fill="#1E2025"/>
<path d="M26.9983 28.0639C27.108 28.3438 27.3041 28.9562 27.6042 29.8777C27.7427 29.067 27.91 28.4547 28.0427 28.0406L29.9469 22.1852C30.1661 21.5436 30.6104 21.2112 31.2971 21.2112H32.0991C32.7627 21.2112 33.3108 21.7711 33.3108 22.436C33.3108 22.5759 33.282 22.7451 33.2301 22.9084L29.0121 33.7502C28.1581 35.978 27.3849 37.4594 26.6983 38.2117C26.0059 38.9641 25.1807 39.3257 24.2171 39.3257C23.5305 39.3257 22.8092 39.1565 22.1226 38.7949C21.7937 38.6258 21.6263 38.3517 21.6263 37.9843C21.6263 37.8443 21.6552 37.7335 21.7071 37.6227L22.0649 36.8703C22.2553 36.4504 22.5034 36.258 22.8669 36.258C23.0343 36.258 23.2535 36.2871 23.5016 36.3396C23.5824 36.3688 23.692 36.3688 23.8594 36.3688C24.6037 36.3688 25.2384 35.7273 25.7635 34.415L26.0405 33.7444L21.0493 22.8442C20.9685 22.6517 20.9397 22.5118 20.9397 22.3718C20.9397 21.7303 21.4359 21.1996 22.0995 21.1996H23.2881C23.8421 21.1996 24.2229 21.4503 24.4479 21.9811L26.9983 28.0639Z" fill="#1E2025"/>
<path d="M3.31102 48.1613V56.6645C3.31102 57.2244 2.84364 57.6968 2.28971 57.6968H1.15876C0.604831 57.6968 0.137451 57.2244 0.137451 56.6645V43.1166C0.137451 39.6873 1.76462 37.8735 4.55159 37.8735C5.5729 37.8735 6.48458 38.0952 7.28086 38.5151C7.63861 38.7075 7.80594 38.9875 7.80594 39.4074C7.80594 39.5765 7.74824 39.7398 7.66746 39.8798L7.41934 40.323C7.17123 40.7954 6.78463 41.017 6.2884 41.017C6.20762 41.017 6.06913 40.9879 5.87295 40.9587C5.62484 40.9004 5.37672 40.8771 5.1286 40.8771C3.91688 40.8771 3.31102 41.711 3.31102 43.3557V45.1403H5.65369C6.20762 45.1403 6.675 45.6127 6.675 46.1726V47.1174C6.675 47.6773 6.20762 48.1497 5.65369 48.1497H3.31102V48.1613Z" fill="#1E2025"/>
<path d="M16.0237 58.0001C14.0099 58.0001 12.3827 57.3877 11.1421 56.1338C9.90156 54.9091 9.26685 53.3461 9.26685 51.4215C9.26685 49.4969 9.90156 47.9397 11.1421 46.68C12.3827 45.4553 14.0099 44.8429 16.0237 44.8429C18.0374 44.8429 19.6934 45.4553 20.934 46.68C22.1746 47.9339 22.7805 49.4969 22.7805 51.4215C22.7805 53.3461 22.1746 54.9032 20.934 56.1338C19.6934 57.3877 18.0374 58.0001 16.0237 58.0001ZM12.6597 51.4215C12.6597 53.5094 14.0676 55.0199 16.0237 55.0199C18.0086 55.0199 19.4165 53.5677 19.4165 51.4215C19.4165 49.3336 17.9797 47.8522 16.0237 47.8522C14.1195 47.8581 12.6597 49.3044 12.6597 51.4215Z" fill="#1E2025"/>
<path d="M32.0761 58.0001C30.0624 58.0001 28.4352 57.3877 27.1946 56.1338C25.954 54.9091 25.3193 53.3461 25.3193 51.4215C25.3193 49.4969 25.954 47.9397 27.1946 46.68C28.4352 45.4553 30.0624 44.8429 32.0761 44.8429C34.0899 44.8429 35.7459 45.4553 36.9865 46.68C38.2271 47.9339 38.833 49.4969 38.833 51.4215C38.833 53.3461 38.2271 54.9032 36.9865 56.1338C35.7402 57.3877 34.0899 58.0001 32.0761 58.0001ZM28.7122 51.4215C28.7122 53.5094 30.1201 55.0199 32.0761 55.0199C34.0611 55.0199 35.469 53.5677 35.469 51.4215C35.469 49.3336 34.0322 47.8522 32.0761 47.8522C30.172 47.8581 28.7122 49.3044 28.7122 51.4215Z" fill="#1E2025"/>
<path d="M52.9235 38.1826C53.4774 38.1826 53.9448 38.655 53.9448 39.2149V56.6645C53.9448 57.2243 53.4774 57.6967 52.9235 57.6967H51.7926C51.2386 57.6967 50.7713 57.2243 50.7713 56.6645V56.3845C49.8076 57.4168 48.619 57.9184 47.2111 57.9184C45.4454 57.9184 44.0375 57.3352 42.9643 56.1629C41.891 55.0198 41.366 53.486 41.366 51.5614C41.366 49.5843 42.0007 47.963 43.2701 46.7091C44.5395 45.4552 46.1667 44.8428 48.1805 44.8428C49.2306 44.8428 50.0846 45.0353 50.7713 45.4552V39.2149C50.7713 38.655 51.2386 38.1826 51.7926 38.1826H52.9235ZM50.7713 48.6104C49.9692 48.1088 49.1729 47.858 48.319 47.858C46.334 47.858 44.7588 49.2227 44.7588 51.4564C44.7588 53.6026 46.109 54.9382 47.8747 54.9382C48.9479 54.9382 49.9173 54.5183 50.7713 53.6551V48.6104Z" fill="#1E2025"/>
</g>
<defs>
<clipPath id="clip0">
<rect width="62.4615" height="58" fill="white"/>
</clipPath>
</defs>
</svg>